<mxfile host="app.diagrams.net" agent="Mozilla/5.0 (Windows NT 10.0; Win64; x64) AppleWebKit/537.36 (KHTML, like Gecko) Chrome/132.0.0.0 Safari/537.36" version="24.7.5" pages="2">
  <diagram name="第 1 页" id="F6YSR0dPzUPgZOCPrG-J">
    <mxGraphModel dx="823" dy="521" grid="1" gridSize="10" guides="1" tooltips="1" connect="1" arrows="1" fold="1" page="1" pageScale="1" pageWidth="827" pageHeight="1169" math="0" shadow="0">
      <root>
        <mxCell id="0" />
        <mxCell id="1" parent="0" />
        <mxCell id="qkiWnrhyNi68kncuxLMR-1" value="Node" style="whiteSpace=wrap;html=1;" vertex="1" parent="1">
          <mxGeometry x="470" y="140" width="120" height="60" as="geometry" />
        </mxCell>
        <mxCell id="qkiWnrhyNi68kncuxLMR-3" value="" style="edgeStyle=orthogonalEdgeStyle;rounded=0;orthogonalLoop=1;jettySize=auto;html=1;" edge="1" parent="1" source="qkiWnrhyNi68kncuxLMR-2" target="qkiWnrhyNi68kncuxLMR-1">
          <mxGeometry relative="1" as="geometry" />
        </mxCell>
        <mxCell id="qkiWnrhyNi68kncuxLMR-2" value="Lifecycle manager" style="whiteSpace=wrap;html=1;" vertex="1" parent="1">
          <mxGeometry x="470" y="250" width="120" height="60" as="geometry" />
        </mxCell>
        <mxCell id="qkiWnrhyNi68kncuxLMR-5" value="" style="edgeStyle=orthogonalEdgeStyle;rounded=0;orthogonalLoop=1;jettySize=auto;html=1;" edge="1" parent="1" source="qkiWnrhyNi68kncuxLMR-4" target="qkiWnrhyNi68kncuxLMR-2">
          <mxGeometry relative="1" as="geometry" />
        </mxCell>
        <mxCell id="qkiWnrhyNi68kncuxLMR-4" value="device manager" style="whiteSpace=wrap;html=1;" vertex="1" parent="1">
          <mxGeometry x="470" y="360" width="120" height="60" as="geometry" />
        </mxCell>
      </root>
    </mxGraphModel>
  </diagram>
  <diagram id="A9tw24PywkGT_CIXn30d" name="第 2 页">
    <mxGraphModel dx="1371" dy="786" grid="1" gridSize="10" guides="1" tooltips="1" connect="1" arrows="1" fold="1" page="1" pageScale="1" pageWidth="827" pageHeight="1169" math="0" shadow="0">
      <root>
        <mxCell id="0" />
        <mxCell id="1" parent="0" />
      </root>
    </mxGraphModel>
  </diagram>
</mxfile>
